<svg class="hidden md:block" width="15" height="14" viewBox="0 0 15 14" fill="none" xmlns="http://www.w3.org/2000/svg"><g clip-path="url(#a)" fill="#6B7280"><path d="M8.413 12.71a.462.462 0 1 1-.856-.35l2.45-5.903a.74.74 0 0 1 1.37 0l2.45 5.904a.462.462 0 1 1-.856.349l-2.237-5.574a.046.046 0 0 0-.084 0zm.254-2.068c0-.208.169-.376.376-.376h3.298a.376.376 0 0 1 0 .752H9.043a.376.376 0 0 1-.376-.376M8.757 1a.342.342 0 1 1 0 .685h-.67v4.857a.46.46 0 0 1-.46.458.49.49 0 0 1-.419-.251 3.7 3.7 0 0 0-.56-.743 5 5 0 0 0-.888-.742l.242-.637q.366.211.762.579.395.366.607.743l-.019-.27q0-.126-.01-.261V1.685H.634a.342.342 0 0 1 0-.685zM4.015 6.122q-.655 0-1.254-.308-.597-.31-1.128-1.042-.448-.638-.838-1.682a.364.364 0 0 1 .23-.471c.193-.063.4.04.471.23q.29.772.6 1.305.385.638.858.936.473.3 1.08.3.53 0 .85-.165.328-.174.472-.463.145-.3.145-.656 0-.56-.309-.907a.95.95 0 0 0-.752-.347q-.318 0-.482.145-.164.135-.164.415 0 .068.019.183c.019.113-.046.233-.158.255l-.208.04a.34.34 0 0 1-.4-.24l-.015-.065a2 2 0 0 1-.03-.328q0-.357.194-.598.203-.24.51-.357a1.8 1.8 0 0 1 .666-.125q.57 0 .984.26.415.25.647.695a2.2 2.2 0 0 1 .231 1.032q0 .52-.241.974-.24.444-.733.714-.492.27-1.245.27m-.308-3.608a.94.94 0 0 0-.29-.54q-.231-.24-.684-.337l.231-.434.434.115q.55.213.791.483.24.27.28.685z"/></g><defs><clipPath id="a"><path fill="#fff" d="M.292 0h14v14h-14z"/></clipPath></defs></svg>